<svg xmlns="http://www.w3.org/2000/svg" width="1024" height="1024" viewBox="0 0 1024 1024">
  
  <defs>
    <linearGradient id="bg" x1="0" y1="0" x2="0" y2="1"><stop offset="0" stop-color="#33406A"></stop><stop offset="0.55" stop-color="#1E2742"></stop><stop offset="1" stop-color="#121A30"></stop></linearGradient>
    <linearGradient id="wall" x1="0" y1="0" x2="1" y2="1"><stop offset="0" stop-color="#1d3b6e"></stop><stop offset="1" stop-color="#0c1a30"></stop></linearGradient>
    <radialGradient id="glow" cx="0.5" cy="0.24" r="0.85"><stop offset="0" stop-color="#8E9BE0" stop-opacity="0.42"></stop><stop offset="1" stop-color="#8E9BE0" stop-opacity="0"></stop></radialGradient>
    <radialGradient id="vig" cx="0.5" cy="0.46" r="0.74"><stop offset="0.55" stop-color="#000000" stop-opacity="0"></stop><stop offset="1" stop-color="#000000" stop-opacity="0.3"></stop></radialGradient>
    <linearGradient id="sheen" x1="0" y1="0" x2="0" y2="1"><stop offset="0" stop-color="#ffffff" stop-opacity="0.2"></stop><stop offset="0.5" stop-color="#ffffff" stop-opacity="0"></stop></linearGradient>
    <linearGradient id="col" x1="0" y1="0" x2="0" y2="1"><stop offset="0" stop-color="#FBF7EC"></stop><stop offset="1" stop-color="#E2D7BC"></stop></linearGradient>
    <linearGradient id="wave" x1="0" y1="0" x2="0" y2="1"><stop offset="0" stop-color="#F6DE94"></stop><stop offset="1" stop-color="#C99A3A"></stop></linearGradient>
    <linearGradient id="rim" x1="0" y1="0" x2="0" y2="1"><stop offset="0" stop-color="#ffffff" stop-opacity="0.5"></stop><stop offset="0.45" stop-color="#ffffff" stop-opacity="0"></stop><stop offset="1" stop-color="#000000" stop-opacity="0.18"></stop></linearGradient>
    <filter id="shadow" x="-25%" y="-25%" width="150%" height="160%"><feDropShadow dx="0" dy="16" stdDeviation="20" flood-color="#05070f" flood-opacity="0.42"></feDropShadow></filter>
    <filter id="gl" x="-60%" y="-60%" width="220%" height="220%"><feGaussianBlur stdDeviation="16"></feGaussianBlur></filter>
  </defs>
  <g id="background">
    
    <path d="M1024 512L1023.92 635.47L1023.67 674.89L1023.25 703.52L1022.66 726.79L1021.91 746.73L1020.99 764.34L1019.9 780.2L1018.64 794.68L1017.2 808.04L1015.6 820.46L1013.83 832.08L1011.88 843L1009.75 853.3L1007.45 863.05L1004.97 872.3L1002.3 881.09L999.46 889.46L996.43 897.44L993.21 905.06L989.79 912.34L986.19 919.3L982.38 925.96L978.38 932.33L974.17 938.42L969.74 944.24L965.1 949.82L960.24 955.15L955.15 960.24L949.82 965.1L944.24 969.74L938.42 974.17L932.33 978.38L925.96 982.38L919.3 986.19L912.34 989.79L905.06 993.21L897.44 996.43L889.46 999.46L881.09 1002.3L872.3 1004.97L863.05 1007.45L853.3 1009.75L843 1011.88L832.08 1013.83L820.46 1015.6L808.04 1017.2L794.68 1018.64L780.2 1019.9L764.34 1020.99L746.73 1021.91L726.79 1022.66L703.52 1023.25L674.89 1023.67L635.47 1023.92L512 1024L388.53 1023.92L349.11 1023.67L320.48 1023.25L297.21 1022.66L277.27 1021.91L259.66 1020.99L243.8 1019.9L229.32 1018.64L215.96 1017.2L203.54 1015.6L191.92 1013.83L181 1011.88L170.7 1009.75L160.95 1007.45L151.7 1004.97L142.91 1002.3L134.54 999.46L126.56 996.43L118.94 993.21L111.66 989.79L104.7 986.19L98.04 982.38L91.67 978.38L85.58 974.17L79.76 969.74L74.18 965.1L68.85 960.24L63.76 955.15L58.9 949.82L54.26 944.24L49.83 938.42L45.62 932.33L41.62 925.96L37.81 919.3L34.21 912.34L30.79 905.06L27.57 897.44L24.54 889.46L21.7 881.09L19.03 872.3L16.55 863.05L14.25 853.3L12.12 843L10.17 832.08L8.4 820.46L6.8 808.04L5.36 794.68L4.1 780.2L3.01 764.34L2.09 746.73L1.34 726.79L0.75 703.52L0.33 674.89L0.08 635.47L0 512L0.08 388.53L0.33 349.11L0.75 320.48L1.34 297.21L2.09 277.27L3.01 259.66L4.1 243.8L5.36 229.32L6.8 215.96L8.4 203.54L10.17 191.92L12.12 181L14.25 170.7L16.55 160.95L19.03 151.7L21.7 142.91L24.54 134.54L27.57 126.56L30.79 118.94L34.21 111.66L37.81 104.7L41.62 98.04L45.62 91.67L49.83 85.58L54.26 79.76L58.9 74.18L63.76 68.85L68.85 63.76L74.18 58.9L79.76 54.26L85.58 49.83L91.67 45.62L98.04 41.62L104.7 37.81L111.66 34.21L118.94 30.79L126.56 27.57L134.54 24.54L142.91 21.7L151.7 19.03L160.95 16.55L170.7 14.25L181 12.12L191.92 10.17L203.54 8.4L215.96 6.8L229.32 5.36L243.8 4.1L259.66 3.01L277.27 2.09L297.21 1.34L320.48 0.75L349.11 0.33L388.53 0.08L512 0L635.47 0.08L674.89 0.33L703.52 0.75L726.79 1.34L746.73 2.09L764.34 3.01L780.2 4.1L794.68 5.36L808.04 6.8L820.46 8.4L832.08 10.17L843 12.12L853.3 14.25L863.05 16.55L872.3 19.03L881.09 21.7L889.46 24.54L897.44 27.57L905.06 30.79L912.34 34.21L919.3 37.81L925.96 41.62L932.33 45.62L938.42 49.83L944.24 54.26L949.82 58.9L955.15 63.76L960.24 68.85L965.1 74.18L969.74 79.76L974.17 85.58L978.38 91.67L982.38 98.04L986.19 104.7L989.79 111.66L993.21 118.94L996.43 126.56L999.46 134.54L1002.3 142.91L1004.97 151.7L1007.45 160.95L1009.75 170.7L1011.88 181L1013.83 191.92L1015.6 203.54L1017.2 215.96L1018.64 229.32L1019.9 243.8L1020.99 259.66L1021.91 277.27L1022.66 297.21L1023.25 320.48L1023.67 349.11L1023.92 388.53Z" fill="url(#bg)"></path>
    <path d="M1024 512L1023.92 635.47L1023.67 674.89L1023.25 703.52L1022.66 726.79L1021.91 746.73L1020.99 764.34L1019.9 780.2L1018.64 794.68L1017.2 808.04L1015.6 820.46L1013.83 832.08L1011.88 843L1009.75 853.3L1007.45 863.05L1004.97 872.3L1002.3 881.09L999.46 889.46L996.43 897.44L993.21 905.06L989.79 912.34L986.19 919.3L982.38 925.96L978.38 932.33L974.17 938.42L969.74 944.24L965.1 949.82L960.24 955.15L955.15 960.24L949.82 965.1L944.24 969.74L938.42 974.17L932.33 978.38L925.96 982.38L919.3 986.19L912.34 989.79L905.06 993.21L897.44 996.43L889.46 999.46L881.09 1002.3L872.3 1004.97L863.05 1007.45L853.3 1009.75L843 1011.88L832.08 1013.83L820.46 1015.6L808.04 1017.2L794.68 1018.64L780.2 1019.9L764.34 1020.99L746.73 1021.91L726.79 1022.66L703.52 1023.25L674.89 1023.67L635.47 1023.92L512 1024L388.53 1023.92L349.11 1023.67L320.48 1023.25L297.21 1022.66L277.27 1021.91L259.66 1020.99L243.8 1019.9L229.32 1018.64L215.96 1017.2L203.54 1015.6L191.92 1013.83L181 1011.88L170.7 1009.75L160.95 1007.45L151.7 1004.97L142.91 1002.3L134.54 999.46L126.56 996.43L118.94 993.21L111.66 989.79L104.7 986.19L98.04 982.38L91.67 978.38L85.58 974.17L79.76 969.74L74.18 965.1L68.85 960.24L63.76 955.15L58.9 949.82L54.26 944.24L49.83 938.42L45.62 932.33L41.62 925.96L37.81 919.3L34.21 912.34L30.79 905.06L27.57 897.44L24.54 889.46L21.7 881.09L19.03 872.3L16.55 863.05L14.25 853.3L12.12 843L10.17 832.08L8.4 820.46L6.8 808.04L5.36 794.68L4.1 780.2L3.01 764.34L2.09 746.73L1.34 726.79L0.75 703.52L0.33 674.89L0.08 635.47L0 512L0.08 388.53L0.33 349.11L0.75 320.48L1.34 297.21L2.09 277.27L3.01 259.66L4.1 243.8L5.36 229.32L6.8 215.96L8.4 203.54L10.17 191.92L12.12 181L14.25 170.7L16.55 160.95L19.03 151.7L21.7 142.91L24.54 134.54L27.57 126.56L30.79 118.94L34.21 111.66L37.81 104.7L41.62 98.04L45.62 91.67L49.83 85.58L54.26 79.76L58.9 74.18L63.76 68.85L68.85 63.76L74.18 58.9L79.76 54.26L85.58 49.83L91.67 45.62L98.04 41.62L104.7 37.81L111.66 34.21L118.94 30.79L126.56 27.57L134.54 24.54L142.91 21.7L151.7 19.03L160.95 16.55L170.7 14.25L181 12.12L191.92 10.17L203.54 8.4L215.96 6.8L229.32 5.36L243.8 4.1L259.66 3.01L277.27 2.09L297.21 1.34L320.48 0.75L349.11 0.33L388.53 0.08L512 0L635.47 0.08L674.89 0.33L703.52 0.75L726.79 1.34L746.73 2.09L764.34 3.01L780.2 4.1L794.68 5.36L808.04 6.8L820.46 8.4L832.08 10.17L843 12.12L853.3 14.25L863.05 16.55L872.3 19.03L881.09 21.7L889.46 24.54L897.44 27.57L905.06 30.79L912.34 34.21L919.3 37.81L925.96 41.62L932.33 45.62L938.42 49.83L944.24 54.26L949.82 58.9L955.15 63.76L960.24 68.85L965.1 74.18L969.74 79.76L974.17 85.58L978.38 91.67L982.38 98.04L986.19 104.7L989.79 111.66L993.21 118.94L996.43 126.56L999.46 134.54L1002.3 142.91L1004.97 151.7L1007.45 160.95L1009.75 170.7L1011.88 181L1013.83 191.92L1015.6 203.54L1017.2 215.96L1018.64 229.32L1019.9 243.8L1020.99 259.66L1021.91 277.27L1022.66 297.21L1023.25 320.48L1023.67 349.11L1023.92 388.53Z" fill="url(#glow)"></path>
    <path d="M1024 512L1023.92 635.47L1023.67 674.89L1023.25 703.52L1022.66 726.79L1021.91 746.73L1020.99 764.34L1019.9 780.2L1018.64 794.68L1017.2 808.04L1015.6 820.46L1013.83 832.08L1011.88 843L1009.75 853.3L1007.45 863.05L1004.97 872.3L1002.3 881.09L999.46 889.46L996.43 897.44L993.21 905.06L989.79 912.34L986.19 919.3L982.38 925.96L978.38 932.33L974.17 938.42L969.74 944.24L965.1 949.82L960.24 955.15L955.15 960.24L949.82 965.1L944.24 969.74L938.42 974.17L932.33 978.38L925.96 982.38L919.3 986.19L912.34 989.79L905.06 993.21L897.44 996.43L889.46 999.46L881.09 1002.3L872.3 1004.97L863.05 1007.45L853.3 1009.75L843 1011.88L832.08 1013.83L820.46 1015.6L808.04 1017.2L794.68 1018.64L780.2 1019.9L764.34 1020.99L746.73 1021.91L726.79 1022.66L703.52 1023.25L674.89 1023.67L635.47 1023.92L512 1024L388.53 1023.92L349.11 1023.67L320.48 1023.25L297.21 1022.66L277.27 1021.91L259.66 1020.99L243.8 1019.9L229.32 1018.64L215.96 1017.2L203.54 1015.6L191.92 1013.83L181 1011.88L170.7 1009.75L160.95 1007.45L151.7 1004.97L142.91 1002.3L134.54 999.46L126.56 996.43L118.94 993.21L111.66 989.79L104.7 986.19L98.04 982.38L91.67 978.38L85.58 974.17L79.76 969.74L74.18 965.1L68.85 960.24L63.76 955.15L58.9 949.82L54.26 944.24L49.83 938.42L45.62 932.33L41.62 925.96L37.81 919.3L34.21 912.34L30.79 905.06L27.57 897.44L24.54 889.46L21.7 881.09L19.03 872.3L16.55 863.05L14.25 853.3L12.12 843L10.17 832.08L8.4 820.46L6.8 808.04L5.36 794.68L4.1 780.2L3.01 764.34L2.09 746.73L1.34 726.79L0.75 703.52L0.33 674.89L0.08 635.47L0 512L0.08 388.53L0.33 349.11L0.75 320.48L1.34 297.21L2.09 277.27L3.01 259.66L4.1 243.8L5.36 229.32L6.8 215.96L8.4 203.54L10.17 191.92L12.12 181L14.25 170.7L16.55 160.95L19.03 151.7L21.7 142.91L24.54 134.54L27.57 126.56L30.79 118.94L34.21 111.66L37.81 104.7L41.62 98.04L45.62 91.67L49.83 85.58L54.26 79.76L58.9 74.18L63.76 68.85L68.85 63.76L74.18 58.9L79.76 54.26L85.58 49.83L91.67 45.62L98.04 41.62L104.7 37.81L111.66 34.21L118.94 30.79L126.56 27.57L134.54 24.54L142.91 21.7L151.7 19.03L160.95 16.55L170.7 14.25L181 12.12L191.92 10.17L203.54 8.4L215.96 6.8L229.32 5.36L243.8 4.1L259.66 3.01L277.27 2.09L297.21 1.34L320.48 0.75L349.11 0.33L388.53 0.08L512 0L635.47 0.08L674.89 0.33L703.52 0.75L726.79 1.34L746.73 2.09L764.34 3.01L780.2 4.1L794.68 5.36L808.04 6.8L820.46 8.4L832.08 10.17L843 12.12L853.3 14.25L863.05 16.55L872.3 19.03L881.09 21.7L889.46 24.54L897.44 27.57L905.06 30.79L912.34 34.21L919.3 37.81L925.96 41.62L932.33 45.62L938.42 49.83L944.24 54.26L949.82 58.9L955.15 63.76L960.24 68.85L965.1 74.18L969.74 79.76L974.17 85.58L978.38 91.67L982.38 98.04L986.19 104.7L989.79 111.66L993.21 118.94L996.43 126.56L999.46 134.54L1002.3 142.91L1004.97 151.7L1007.45 160.95L1009.75 170.7L1011.88 181L1013.83 191.92L1015.6 203.54L1017.2 215.96L1018.64 229.32L1019.9 243.8L1020.99 259.66L1021.91 277.27L1022.66 297.21L1023.25 320.48L1023.67 349.11L1023.92 388.53Z" fill="url(#vig)"></path>
  </g>
  <g id="foreground" filter="url(#shadow)">
    <g filter="url(#gl)" opacity="0.55"><rect x="372.76" y="490.76" width="14.16" height="14.16" rx="7.08" ry="7.08" fill="#FFD86B"></rect><rect x="391.64" y="484.86" width="14.16" height="25.96" rx="7.08" ry="7.08" fill="#FFD86B"></rect><rect x="410.52" y="474.24" width="14.16" height="47.2" rx="7.08" ry="7.08" fill="#FFD86B"></rect><rect x="429.4" y="480.14" width="14.16" height="35.4" rx="7.08" ry="7.08" fill="#FFD86B"></rect><rect x="448.28" y="460.08" width="14.16" height="75.52" rx="7.08" ry="7.08" fill="#FFD86B"></rect><rect x="467.16" y="445.92" width="14.16" height="103.84" rx="7.08" ry="7.08" fill="#FFD86B"></rect><rect x="486.04" y="427.04" width="14.16" height="141.6" rx="7.08" ry="7.08" fill="#FFD86B"></rect><rect x="504.92" y="405.8" width="14.16" height="184.08" rx="7.08" ry="7.08" fill="#FFD86B"></rect><rect x="523.8" y="427.04" width="14.16" height="141.6" rx="7.08" ry="7.08" fill="#FFD86B"></rect><rect x="542.68" y="445.92" width="14.16" height="103.84" rx="7.08" ry="7.08" fill="#FFD86B"></rect><rect x="561.56" y="460.08" width="14.16" height="75.52" rx="7.08" ry="7.08" fill="#FFD86B"></rect><rect x="580.44" y="480.14" width="14.16" height="35.4" rx="7.08" ry="7.08" fill="#FFD86B"></rect><rect x="599.32" y="474.24" width="14.16" height="47.2" rx="7.08" ry="7.08" fill="#FFD86B"></rect><rect x="618.2" y="484.86" width="14.16" height="25.96" rx="7.08" ry="7.08" fill="#FFD86B"></rect><rect x="637.08" y="490.76" width="14.16" height="14.16" rx="7.08" ry="7.08" fill="#FFD86B"></rect></g>
    <rect x="288.98" y="261.84" width="77.88" height="500.32" rx="4.72" ry="4.72" fill="url(#col)"></rect><rect x="239.42" y="261.84" width="177" height="25.96" rx="7.08" ry="7.08" fill="url(#col)"></rect><rect x="239.42" y="736.2" width="177" height="25.96" rx="7.08" ry="7.08" fill="url(#col)"></rect><rect x="657.14" y="261.84" width="77.88" height="500.32" rx="4.72" ry="4.72" fill="url(#col)"></rect><rect x="607.58" y="261.84" width="177" height="25.96" rx="7.08" ry="7.08" fill="url(#col)"></rect><rect x="607.58" y="736.2" width="177" height="25.96" rx="7.08" ry="7.08" fill="url(#col)"></rect>
    <rect x="372.76" y="490.76" width="14.16" height="14.16" rx="7.08" ry="7.08" fill="url(#wave)"></rect><rect x="391.64" y="484.86" width="14.16" height="25.96" rx="7.08" ry="7.08" fill="url(#wave)"></rect><rect x="410.52" y="474.24" width="14.16" height="47.2" rx="7.08" ry="7.08" fill="url(#wave)"></rect><rect x="429.4" y="480.14" width="14.16" height="35.4" rx="7.08" ry="7.08" fill="url(#wave)"></rect><rect x="448.28" y="460.08" width="14.16" height="75.52" rx="7.08" ry="7.08" fill="url(#wave)"></rect><rect x="467.16" y="445.92" width="14.16" height="103.84" rx="7.08" ry="7.08" fill="url(#wave)"></rect><rect x="486.04" y="427.04" width="14.16" height="141.6" rx="7.08" ry="7.08" fill="url(#wave)"></rect><rect x="504.92" y="405.8" width="14.16" height="184.08" rx="7.08" ry="7.08" fill="url(#wave)"></rect><rect x="523.8" y="427.04" width="14.16" height="141.6" rx="7.08" ry="7.08" fill="url(#wave)"></rect><rect x="542.68" y="445.92" width="14.16" height="103.84" rx="7.08" ry="7.08" fill="url(#wave)"></rect><rect x="561.56" y="460.08" width="14.16" height="75.52" rx="7.08" ry="7.08" fill="url(#wave)"></rect><rect x="580.44" y="480.14" width="14.16" height="35.4" rx="7.08" ry="7.08" fill="url(#wave)"></rect><rect x="599.32" y="474.24" width="14.16" height="47.2" rx="7.08" ry="7.08" fill="url(#wave)"></rect><rect x="618.2" y="484.86" width="14.16" height="25.96" rx="7.08" ry="7.08" fill="url(#wave)"></rect><rect x="637.08" y="490.76" width="14.16" height="14.16" rx="7.08" ry="7.08" fill="url(#wave)"></rect>
    <rect x="239.42" y="261.84" width="177" height="9.44" rx="4.72" ry="4.72" fill="#ffffff" opacity="0.55"></rect><rect x="607.58" y="261.84" width="177" height="9.44" rx="4.72" ry="4.72" fill="#ffffff" opacity="0.55"></rect>
  </g>
  <g id="glass-overlay">
    <path d="M1024 512L1023.92 635.47L1023.67 674.89L1023.25 703.52L1022.66 726.79L1021.91 746.73L1020.99 764.34L1019.9 780.2L1018.64 794.68L1017.2 808.04L1015.6 820.46L1013.83 832.08L1011.88 843L1009.75 853.3L1007.45 863.05L1004.97 872.3L1002.3 881.09L999.46 889.46L996.43 897.44L993.21 905.06L989.79 912.34L986.19 919.3L982.38 925.96L978.38 932.33L974.17 938.42L969.74 944.24L965.1 949.82L960.24 955.15L955.15 960.24L949.82 965.1L944.24 969.74L938.42 974.17L932.33 978.38L925.96 982.38L919.3 986.19L912.34 989.79L905.06 993.21L897.44 996.43L889.46 999.46L881.09 1002.3L872.3 1004.97L863.05 1007.45L853.3 1009.75L843 1011.88L832.08 1013.83L820.46 1015.6L808.04 1017.2L794.68 1018.64L780.2 1019.9L764.34 1020.99L746.73 1021.91L726.79 1022.66L703.52 1023.25L674.89 1023.67L635.47 1023.92L512 1024L388.53 1023.92L349.11 1023.67L320.48 1023.25L297.21 1022.66L277.27 1021.91L259.66 1020.99L243.8 1019.9L229.32 1018.64L215.96 1017.2L203.54 1015.6L191.92 1013.83L181 1011.88L170.7 1009.75L160.95 1007.45L151.7 1004.97L142.91 1002.3L134.54 999.46L126.56 996.43L118.94 993.21L111.66 989.79L104.7 986.19L98.04 982.38L91.67 978.38L85.58 974.17L79.76 969.74L74.18 965.1L68.85 960.24L63.76 955.15L58.9 949.82L54.26 944.24L49.83 938.42L45.62 932.33L41.62 925.96L37.81 919.3L34.21 912.34L30.79 905.06L27.57 897.44L24.54 889.46L21.7 881.09L19.03 872.3L16.55 863.05L14.25 853.3L12.12 843L10.17 832.08L8.4 820.46L6.8 808.04L5.36 794.68L4.1 780.2L3.01 764.34L2.09 746.73L1.34 726.79L0.75 703.52L0.33 674.89L0.08 635.47L0 512L0.08 388.53L0.33 349.11L0.75 320.48L1.34 297.21L2.09 277.27L3.01 259.66L4.1 243.8L5.36 229.32L6.8 215.96L8.4 203.54L10.17 191.92L12.12 181L14.25 170.7L16.55 160.95L19.03 151.7L21.7 142.91L24.54 134.54L27.57 126.56L30.79 118.94L34.21 111.66L37.81 104.7L41.62 98.04L45.62 91.67L49.83 85.58L54.26 79.76L58.9 74.18L63.76 68.85L68.85 63.76L74.18 58.9L79.76 54.26L85.58 49.83L91.67 45.62L98.04 41.62L104.7 37.81L111.66 34.21L118.94 30.79L126.56 27.57L134.54 24.54L142.91 21.7L151.7 19.03L160.95 16.55L170.7 14.25L181 12.12L191.92 10.17L203.54 8.4L215.96 6.8L229.32 5.36L243.8 4.1L259.66 3.01L277.27 2.09L297.21 1.34L320.48 0.75L349.11 0.33L388.53 0.08L512 0L635.47 0.08L674.89 0.33L703.52 0.75L726.79 1.34L746.73 2.09L764.34 3.01L780.2 4.1L794.68 5.36L808.04 6.8L820.46 8.4L832.08 10.17L843 12.12L853.3 14.25L863.05 16.55L872.3 19.03L881.09 21.7L889.46 24.54L897.44 27.57L905.06 30.79L912.34 34.21L919.3 37.81L925.96 41.62L932.33 45.62L938.42 49.83L944.24 54.26L949.82 58.9L955.15 63.76L960.24 68.85L965.1 74.18L969.74 79.76L974.17 85.58L978.38 91.67L982.38 98.04L986.19 104.7L989.79 111.66L993.21 118.94L996.43 126.56L999.46 134.54L1002.3 142.91L1004.97 151.7L1007.45 160.95L1009.75 170.7L1011.88 181L1013.83 191.92L1015.6 203.54L1017.2 215.96L1018.64 229.32L1019.9 243.8L1020.99 259.66L1021.91 277.27L1022.66 297.21L1023.25 320.48L1023.67 349.11L1023.92 388.53Z" fill="url(#sheen)"></path>
    <path d="M1024 512L1023.92 635.47L1023.67 674.89L1023.25 703.52L1022.66 726.79L1021.91 746.73L1020.99 764.34L1019.9 780.2L1018.64 794.68L1017.2 808.04L1015.6 820.46L1013.83 832.08L1011.88 843L1009.75 853.3L1007.45 863.05L1004.97 872.3L1002.3 881.09L999.46 889.46L996.43 897.44L993.21 905.06L989.79 912.34L986.19 919.3L982.38 925.96L978.38 932.33L974.17 938.42L969.74 944.24L965.1 949.82L960.24 955.15L955.15 960.24L949.82 965.1L944.24 969.74L938.42 974.17L932.33 978.38L925.96 982.38L919.3 986.19L912.34 989.79L905.06 993.21L897.44 996.43L889.46 999.46L881.09 1002.3L872.3 1004.97L863.05 1007.45L853.3 1009.75L843 1011.88L832.08 1013.83L820.46 1015.6L808.04 1017.2L794.68 1018.64L780.2 1019.9L764.34 1020.99L746.73 1021.91L726.79 1022.66L703.52 1023.25L674.89 1023.67L635.47 1023.92L512 1024L388.53 1023.92L349.11 1023.67L320.48 1023.25L297.21 1022.66L277.27 1021.91L259.66 1020.99L243.8 1019.9L229.32 1018.64L215.96 1017.2L203.54 1015.6L191.92 1013.83L181 1011.88L170.7 1009.75L160.95 1007.45L151.7 1004.97L142.91 1002.3L134.54 999.46L126.56 996.43L118.94 993.21L111.66 989.79L104.7 986.19L98.04 982.38L91.67 978.38L85.58 974.17L79.76 969.74L74.18 965.1L68.85 960.24L63.76 955.15L58.9 949.82L54.26 944.24L49.83 938.42L45.62 932.33L41.62 925.96L37.81 919.3L34.21 912.34L30.79 905.06L27.57 897.44L24.54 889.46L21.7 881.09L19.03 872.3L16.55 863.05L14.25 853.3L12.12 843L10.17 832.08L8.4 820.46L6.8 808.04L5.36 794.68L4.1 780.2L3.01 764.34L2.09 746.73L1.34 726.79L0.75 703.52L0.33 674.89L0.08 635.47L0 512L0.08 388.53L0.33 349.11L0.75 320.48L1.34 297.21L2.09 277.27L3.01 259.66L4.1 243.8L5.36 229.32L6.8 215.96L8.4 203.54L10.17 191.92L12.12 181L14.25 170.7L16.55 160.95L19.03 151.7L21.7 142.91L24.54 134.54L27.57 126.56L30.79 118.94L34.21 111.66L37.81 104.7L41.62 98.04L45.62 91.67L49.83 85.58L54.26 79.76L58.9 74.18L63.76 68.85L68.85 63.76L74.18 58.9L79.76 54.26L85.58 49.83L91.67 45.62L98.04 41.62L104.7 37.81L111.66 34.21L118.94 30.79L126.56 27.57L134.54 24.54L142.91 21.7L151.7 19.03L160.95 16.55L170.7 14.25L181 12.12L191.92 10.17L203.54 8.4L215.96 6.8L229.32 5.36L243.8 4.1L259.66 3.01L277.27 2.09L297.21 1.34L320.48 0.75L349.11 0.33L388.53 0.08L512 0L635.47 0.08L674.89 0.33L703.52 0.75L726.79 1.34L746.73 2.09L764.34 3.01L780.2 4.1L794.68 5.36L808.04 6.8L820.46 8.4L832.08 10.17L843 12.12L853.3 14.25L863.05 16.55L872.3 19.03L881.09 21.7L889.46 24.54L897.44 27.57L905.06 30.79L912.34 34.21L919.3 37.81L925.96 41.62L932.33 45.62L938.42 49.83L944.24 54.26L949.82 58.9L955.15 63.76L960.24 68.85L965.1 74.18L969.74 79.76L974.17 85.58L978.38 91.67L982.38 98.04L986.19 104.7L989.79 111.66L993.21 118.94L996.43 126.56L999.46 134.54L1002.3 142.91L1004.97 151.7L1007.45 160.95L1009.75 170.7L1011.88 181L1013.83 191.92L1015.6 203.54L1017.2 215.96L1018.64 229.32L1019.9 243.8L1020.99 259.66L1021.91 277.27L1022.66 297.21L1023.25 320.48L1023.67 349.11L1023.92 388.53Z" fill="none" stroke="url(#rim)" stroke-width="4.5"></path>
  </g>
</svg>