<svg xmlns="http://www.w3.org/2000/svg" width="22" height="16" viewBox="-83.65 86.95 1184.28 861.29">
<path d="M-64.95 516.37 C-50.85 510.16 -1.05 489.04 18.45 487.99 C38.1 486.93 40.65 512.54 52.35 510.03 C64.2 507.39 76.8 473.6 88.95 472.54 C101.1 471.49 112.5 525.61 125.55 503.7 C138.6 481.92 153.75 350.44 167.25 341.34 C180.75 332.36 190.8 487.06 206.4 449.31 C222.15 411.69 246.45 163.4 261.15 115.22 C276 67.17 285.15 103.6 295.2 160.63 C305.1 217.78 310.35 426.87 321.3 457.63 C332.1 488.52 345.15 339.22 360.45 345.69 C375.6 352.03 395.7 480.2 412.65 495.78 C429.6 511.35 446.1 439.41 462.15 439.28 C478.35 439.28 492.15 495.38 509.1 495.38 C526.2 495.38 546.15 439.15 564 439.15 C581.85 439.15 599.7 510.96 616.2 495.25 C632.7 479.67 648.45 352.42 663.15 345.3 C678 338.17 693.6 482.58 705 452.61 C716.25 422.65 721.05 221.61 731.1 165.25 C741 109.02 754.05 116.41 765 115.09 C775.8 113.77 786.75 100.04 796.35 157.33 C805.8 214.75 811.5 427.8 822.45 459.08 C833.25 490.36 848.1 337.77 861.6 345.16 C875.1 352.56 890.25 482.31 903.3 503.56 C916.35 524.82 928.05 471.62 939.9 472.68 C951.6 473.86 961.95 507.39 973.8 510.03 C985.5 512.54 990.45 484.56 1010.25 488.12 C1030.2 491.68 1093.2 518.74 1093.2 531.28 C1093.2 543.69 1030.2 560.98 1010.25 562.83 C990.45 564.81 985.5 539.73 973.8 542.5 C961.95 545.14 951.6 578.01 939.9 579.2 C928.05 580.39 916.35 528.78 903.3 549.9 C890.25 571.02 875.4 696.42 861.6 705.79 C847.65 715.16 835.95 569.96 819.75 606.13 C803.7 642.3 784.05 923.46 765 922.93 C745.8 922.53 721.95 640.05 705 603.36 C688.05 566.53 678 710.8 663.15 702.62 C648.45 694.3 632.7 569.3 616.2 553.86 C599.7 538.41 581.85 609.96 564 609.82 C546.15 609.69 526.2 553.06 509.1 553.06 C492.15 553.06 478.65 609.96 462.15 610.09 C445.65 610.22 425.7 538.68 409.95 553.86 C394.35 568.9 383.1 692.59 368.25 700.77 C353.4 708.96 338.7 566.13 321.3 603.09 C303.9 640.18 279 877.78 263.85 922.93 C248.55 968.07 239.4 926.76 229.95 874.09 C220.35 821.55 217.35 635.04 206.4 607.32 C195.6 579.46 177.75 717.01 164.7 707.64 C151.65 698.26 140.7 572.2 128.1 550.82 C115.5 529.44 101.1 580.78 88.95 579.33 C76.8 578.01 66.75 545.54 55.05 542.9 C43.35 540.13 38.7 566 18.45 563.1 C-1.8 560.19 -52.35 533.13 -66.3 525.34 C-80.25 517.56 -79.2 522.57 -64.95 516.37 Z" fill="#000000" fill-rule="nonzero" stroke="#000000" stroke-width="12" stroke-linejoin="bevel" stroke-linecap="butt"/>
</svg>
