<svg xmlns="http://www.w3.org/2000/svg" width="22" height="16" viewBox="42.3 177.5 938.3 685.0">
<path d="M126.2 518.4 C135.6 513.7 168.8 497.7 181.8 496.9 C194.9 496.1 196.6 515.5 204.4 513.6 C212.3 511.6 220.7 486.0 228.8 485.2 C236.9 484.4 244.5 525.4 253.2 508.8 C261.9 492.3 272.0 392.7 281.0 385.8 C290.0 379.0 296.7 496.2 307.1 467.6 C317.6 439.1 333.8 251.0 343.6 214.5 C353.5 178.1 359.6 205.7 366.3 248.9 C372.9 292.2 376.4 450.6 383.7 473.9 C390.9 497.3 399.6 384.2 409.8 389.1 C419.9 393.9 433.3 491.0 444.6 502.8 C455.9 514.6 466.9 460.1 477.6 460.0 C488.4 460.0 497.6 502.5 508.9 502.5 C520.3 502.5 533.6 459.9 545.5 459.9 C557.4 459.9 569.3 514.3 580.3 502.4 C591.3 490.6 601.8 394.2 611.6 388.8 C621.5 383.4 631.9 492.8 639.5 470.1 C647.0 447.4 650.2 295.1 656.9 252.4 C663.5 209.8 672.2 215.4 679.5 214.4 C686.7 213.4 694.0 203.0 700.4 246.4 C706.7 289.9 710.5 451.3 717.8 475.0 C725.0 498.7 734.9 383.1 743.9 388.7 C752.9 394.3 763.0 492.6 771.7 508.7 C780.4 524.8 788.2 484.5 796.1 485.3 C803.9 486.2 810.8 511.6 818.7 513.6 C826.5 515.5 829.8 494.3 843.0 497.0 C856.3 499.7 898.3 520.2 898.3 529.7 C898.3 539.1 856.3 552.2 843.0 553.6 C829.8 555.1 826.5 536.1 818.7 538.2 C810.8 540.2 803.9 565.1 796.1 566.0 C788.2 566.9 780.4 527.8 771.7 543.8 C763.0 559.8 753.1 654.8 743.9 661.9 C734.6 669.0 726.8 559.0 716.0 586.4 C705.3 613.8 692.2 826.8 679.5 826.4 C666.7 826.1 650.8 612.1 639.5 584.3 C628.2 556.4 621.5 665.7 611.6 659.5 C601.8 653.2 591.3 558.5 580.3 546.8 C569.3 535.1 557.4 589.3 545.5 589.2 C533.6 589.1 520.3 546.2 508.9 546.2 C497.6 546.2 488.6 589.3 477.6 589.4 C466.6 589.5 453.3 535.3 442.8 546.8 C432.4 558.2 424.9 651.9 415.0 658.1 C405.1 664.3 395.3 556.1 383.7 584.1 C372.1 612.2 355.5 792.2 345.4 826.4 C335.2 860.6 329.1 829.3 322.8 789.4 C316.4 749.6 314.4 608.3 307.1 587.3 C299.9 566.2 288.0 670.4 279.3 663.3 C270.6 656.2 263.3 560.7 254.9 544.5 C246.5 528.3 236.9 567.2 228.8 566.1 C220.7 565.1 214.0 540.5 206.2 538.5 C198.4 536.4 195.3 556.0 181.8 553.8 C168.3 551.6 134.6 531.1 125.3 525.2 C116.0 519.3 116.7 523.1 126.2 518.4 Z" fill="#000000" fill-rule="nonzero" stroke="#000000" stroke-width="65.0" stroke-linejoin="round" stroke-linecap="round"/>
<circle cx="102.6" cy="524.8" r="44.1" fill="#000000"/>
<circle cx="921.3" cy="524.7" r="43.8" fill="#000000"/>
</svg>
