<svg xmlns="http://www.w3.org/2000/svg" width="22" height="16" viewBox="80 205 863 630">
<path d="M 91.35 519.79 Q 92.22 518.91 93.09 517.93 Q 93.96 516.95 94.83 516.07 Q 95.70 515.18 96.57 514.69 Q 97.44 514.20 98.31 513.96 Q 99.18 513.71 100.05 513.57 Q 100.92 513.42 101.79 513.37 Q 102.66 513.32 103.53 513.42 Q 104.40 513.52 105.27 513.71 Q 106.14 513.91 107.01 514.25 Q 107.88 514.60 108.75 515.28 Q 109.62 515.97 110.49 517.00 Q 111.36 518.03 112.23 518.96 Q 113.10 519.89 113.54 520.33 Q 113.97 520.77 113.97 524.79 Q 113.97 528.81 113.54 529.20 Q 113.10 529.59 112.23 530.52 Q 111.36 531.45 110.49 532.48 Q 109.62 533.51 108.75 534.20 Q 107.88 534.88 107.01 535.27 Q 106.14 535.67 105.27 535.96 Q 104.40 536.25 103.53 536.35 Q 102.66 536.45 101.79 536.40 Q 100.92 536.35 100.05 536.21 Q 99.18 536.06 98.31 535.67 Q 97.44 535.27 96.57 534.74 Q 95.70 534.20 94.83 533.27 Q 93.96 532.33 93.09 531.35 Q 92.22 530.37 91.35 529.54 Q 90.48 528.71 90.48 524.69 Z M 126.15 518.37 Q 127.02 517.54 127.89 516.56 Q 128.76 515.58 129.63 514.65 Q 130.50 513.71 131.37 513.08 Q 132.24 512.44 133.11 511.90 Q 133.98 511.36 134.85 511.02 Q 135.72 510.68 136.59 510.43 Q 137.46 510.19 138.33 510.04 Q 139.20 509.89 140.07 509.84 Q 140.94 509.80 141.81 509.84 Q 142.68 509.89 143.55 509.99 Q 144.42 510.09 145.29 510.33 Q 146.16 510.58 147.03 510.92 Q 147.90 511.27 148.77 511.80 Q 149.64 512.34 150.51 512.98 Q 151.38 513.62 152.25 514.40 Q 153.12 515.18 153.99 515.97 Q 154.86 516.75 155.73 517.39 Q 156.60 518.03 157.47 518.47 Q 158.34 518.91 159.21 519.01 Q 160.08 519.10 160.95 518.66 Q 161.82 518.22 162.69 517.34 Q 163.56 516.46 164.43 515.09 Q 165.30 513.71 166.17 512.10 Q 167.04 510.48 167.91 508.86 Q 168.78 507.25 169.65 505.83 Q 170.52 504.41 171.39 503.28 Q 172.26 502.15 173.13 501.27 Q 174.00 500.39 174.87 499.75 Q 175.74 499.11 176.61 498.62 Q 177.48 498.13 178.35 497.79 Q 179.22 497.45 180.09 497.20 Q 180.96 496.96 181.83 496.91 Q 182.70 496.86 183.57 496.86 Q 184.44 496.86 185.31 497.06 Q 186.18 497.25 187.05 497.59 Q 187.92 497.94 188.79 498.38 Q 189.66 498.82 190.53 499.41 Q 191.40 500.00 192.27 500.83 Q 193.14 501.66 194.01 502.69 Q 194.88 503.72 195.75 504.90 Q 196.62 506.07 197.49 507.35 Q 198.36 508.62 199.23 509.75 Q 200.10 510.87 200.97 511.76 Q 201.84 512.64 202.71 513.13 Q 203.58 513.62 204.45 513.57 Q 205.32 513.52 206.19 512.88 Q 207.06 512.24 207.93 511.02 Q 208.80 509.80 209.67 508.13 Q 210.54 506.46 211.41 504.55 Q 212.28 502.64 213.15 500.73 Q 214.02 498.82 214.89 497.06 Q 215.76 495.29 216.63 493.82 Q 217.50 492.35 218.37 491.22 Q 219.24 490.10 220.11 489.22 Q 220.98 488.33 221.85 487.70 Q 222.72 487.06 223.59 486.62 Q 224.46 486.18 225.33 485.88 Q 226.20 485.59 227.07 485.44 Q 227.94 485.30 228.81 485.20 Q 229.68 485.10 230.55 485.20 Q 231.42 485.30 232.29 485.49 Q 233.16 485.69 234.03 486.03 Q 234.90 486.37 235.77 486.91 Q 236.64 487.45 237.51 488.14 Q 238.38 488.82 239.25 489.71 Q 240.12 490.59 240.99 491.71 Q 241.86 492.84 242.73 494.21 Q 243.60 495.59 244.47 497.20 Q 245.34 498.82 246.21 500.49 Q 247.08 502.15 247.95 503.72 Q 248.82 505.29 249.69 506.51 Q 250.56 507.74 251.43 508.37 Q 252.30 509.01 253.17 508.82 Q 254.04 508.62 254.91 507.25 Q 255.78 505.88 256.65 501.76 Q 257.52 497.64 258.39 490.39 Q 259.26 483.14 260.13 473.83 Q 261.00 464.52 261.87 454.47 Q 262.74 444.43 263.61 435.07 Q 264.48 425.71 265.35 419.15 Q 266.22 412.58 267.09 408.27 Q 267.96 403.96 268.83 401.16 Q 269.70 398.37 270.57 396.41 Q 271.44 394.45 272.31 392.98 Q 273.18 391.51 274.05 390.43 Q 274.92 389.35 275.79 388.57 Q 276.66 387.79 277.53 387.25 Q 278.40 386.71 279.27 386.36 Q 280.14 386.02 281.01 385.83 Q 281.88 385.63 282.75 385.63 Q 283.62 385.63 284.49 385.83 Q 285.36 386.02 286.23 386.36 Q 287.10 386.71 287.97 387.25 Q 288.84 387.79 289.71 388.57 Q 290.58 389.35 291.45 390.43 Q 292.32 391.51 293.19 393.08 Q 294.06 394.65 294.93 396.90 Q 295.80 399.15 296.67 402.44 Q 297.54 405.72 298.41 410.52 Q 299.28 415.32 300.15 421.79 Q 301.02 428.26 301.89 436.20 Q 302.76 444.14 303.63 452.81 Q 304.50 461.48 305.37 465.60 Q 306.24 469.71 307.11 467.61 Q 307.98 465.50 308.85 456.68 Q 309.72 447.86 310.59 432.87 Q 311.46 417.87 312.33 400.04 Q 313.20 382.20 314.07 366.08 Q 314.94 349.96 315.81 335.70 Q 316.68 321.44 317.55 309.53 Q 318.42 297.63 319.29 287.63 Q 320.16 277.63 321.03 269.35 Q 321.90 261.07 322.77 254.55 Q 323.64 248.04 324.51 243.19 Q 325.38 238.34 326.25 234.95 Q 327.12 231.57 327.99 229.22 Q 328.86 226.87 329.73 225.15 Q 330.60 223.44 331.47 222.17 Q 332.34 220.89 333.21 219.96 Q 334.08 219.03 334.95 218.29 Q 335.82 217.56 336.69 217.02 Q 337.56 216.48 338.43 216.04 Q 339.30 215.60 340.17 215.31 Q 341.04 215.01 341.91 214.82 Q 342.78 214.62 343.65 214.52 Q 344.52 214.42 345.39 214.42 Q 346.26 214.42 347.13 214.52 Q 348.00 214.62 348.87 214.82 Q 349.74 215.01 350.61 215.35 Q 351.48 215.70 352.35 216.24 Q 353.22 216.78 354.09 217.41 Q 354.96 218.05 355.83 218.88 Q 356.70 219.72 357.57 220.79 Q 358.44 221.87 359.31 223.24 Q 360.18 224.62 361.05 226.53 Q 361.92 228.44 362.79 231.28 Q 363.66 234.12 364.53 238.48 Q 365.40 242.84 366.27 248.92 Q 367.14 255.00 368.01 262.88 Q 368.88 270.77 369.75 280.82 Q 370.62 290.86 371.49 303.02 Q 372.36 315.17 373.23 328.64 Q 374.10 342.12 374.97 356.67 Q 375.84 371.22 376.71 386.12 Q 377.58 401.02 378.45 415.57 Q 379.32 430.12 380.19 442.81 Q 381.06 455.50 381.93 463.25 Q 382.80 470.99 383.67 473.93 Q 384.54 476.87 385.41 474.81 Q 386.28 472.75 387.15 466.14 Q 388.02 459.52 388.89 451.68 Q 389.76 443.84 390.63 436.74 Q 391.50 429.63 392.37 423.60 Q 393.24 417.58 394.11 413.07 Q 394.98 408.56 395.85 405.38 Q 396.72 402.19 397.59 400.04 Q 398.46 397.88 399.33 396.36 Q 400.20 394.84 401.07 393.76 Q 401.94 392.69 402.81 391.90 Q 403.68 391.12 404.55 390.58 Q 405.42 390.04 406.29 389.70 Q 407.16 389.35 408.03 389.21 Q 408.90 389.06 409.77 389.06 Q 410.64 389.06 411.51 389.21 Q 412.38 389.35 413.25 389.65 Q 414.12 389.94 414.99 390.43 Q 415.86 390.92 416.73 391.66 Q 417.60 392.39 418.47 393.37 Q 419.34 394.35 420.21 395.63 Q 421.08 396.90 421.95 398.66 Q 422.82 400.43 423.69 402.83 Q 424.56 405.23 425.43 408.81 Q 426.30 412.38 427.17 417.72 Q 428.04 423.07 428.91 430.22 Q 429.78 437.37 430.65 445.46 Q 431.52 453.54 432.39 461.29 Q 433.26 469.03 434.13 475.54 Q 435.00 482.06 435.87 486.52 Q 436.74 490.98 437.61 493.58 Q 438.48 496.17 439.35 497.74 Q 440.22 499.31 441.09 500.34 Q 441.96 501.37 442.83 501.96 Q 443.70 502.54 444.57 502.79 Q 445.44 503.03 446.31 502.94 Q 447.18 502.84 448.05 502.45 Q 448.92 502.05 449.79 501.27 Q 450.66 500.49 451.53 499.31 Q 452.40 498.13 453.27 496.47 Q 454.14 494.80 455.01 492.65 Q 455.88 490.49 456.75 488.04 Q 457.62 485.59 458.49 483.04 Q 459.36 480.49 460.23 478.14 Q 461.10 475.79 461.97 473.78 Q 462.84 471.77 463.71 470.20 Q 464.58 468.64 465.45 467.36 Q 466.32 466.09 467.19 465.16 Q 468.06 464.23 468.93 463.49 Q 469.80 462.76 470.67 462.22 Q 471.54 461.68 472.41 461.29 Q 473.28 460.89 474.15 460.60 Q 475.02 460.31 475.89 460.16 Q 476.76 460.01 477.63 460.01 Q 478.50 460.01 479.37 460.06 Q 480.24 460.11 481.11 460.35 Q 481.98 460.60 482.85 460.99 Q 483.72 461.38 484.59 461.82 Q 485.46 462.27 486.33 462.90 Q 487.20 463.54 488.07 464.37 Q 488.94 465.21 489.81 466.23 Q 490.68 467.26 491.55 468.64 Q 492.42 470.01 493.29 471.67 Q 494.16 473.34 495.03 475.35 Q 495.90 477.36 496.77 479.66 Q 497.64 481.96 498.51 484.32 Q 499.38 486.67 500.25 488.92 Q 501.12 491.18 501.99 493.14 Q 502.86 495.10 503.73 496.66 Q 504.60 498.23 505.47 499.36 Q 506.34 500.49 507.21 501.27 Q 508.08 502.05 508.95 502.49 Q 509.82 502.94 510.69 503.13 Q 511.56 503.33 512.44 503.28 Q 513.31 503.23 514.18 502.89 Q 515.05 502.54 515.92 501.96 Q 516.79 501.37 517.66 500.39 Q 518.53 499.41 519.40 498.08 Q 520.27 496.76 521.14 495.00 Q 522.01 493.23 522.88 491.08 Q 523.75 488.92 524.62 486.52 Q 525.49 484.12 526.36 481.67 Q 527.23 479.22 528.10 477.01 Q 528.97 474.81 529.84 472.90 Q 530.71 470.99 531.58 469.52 Q 532.45 468.05 533.32 466.92 Q 534.19 465.79 535.06 464.91 Q 535.93 464.03 536.80 463.34 Q 537.67 462.66 538.54 462.17 Q 539.41 461.68 540.28 461.24 Q 541.15 460.80 542.02 460.50 Q 542.89 460.21 543.76 460.06 Q 544.63 459.91 545.50 459.91 Q 546.37 459.91 547.24 460.06 Q 548.11 460.21 548.98 460.50 Q 549.85 460.80 550.72 461.24 Q 551.59 461.68 552.46 462.22 Q 553.33 462.76 554.20 463.44 Q 555.07 464.13 555.94 465.06 Q 556.81 465.99 557.68 467.21 Q 558.55 468.44 559.42 469.91 Q 560.29 471.38 561.16 473.24 Q 562.03 475.10 562.90 477.41 Q 563.77 479.71 564.64 482.16 Q 565.51 484.61 566.38 487.06 Q 567.25 489.51 568.12 491.76 Q 568.99 494.02 569.86 495.83 Q 570.73 497.64 571.60 498.92 Q 572.47 500.19 573.34 501.07 Q 574.21 501.96 575.08 502.45 Q 575.95 502.94 576.82 503.08 Q 577.69 503.23 578.56 503.08 Q 579.43 502.94 580.30 502.45 Q 581.17 501.96 582.04 501.07 Q 582.91 500.19 583.78 498.77 Q 584.65 497.35 585.52 494.85 Q 586.39 492.35 587.26 488.24 Q 588.13 484.12 589.00 478.09 Q 589.87 472.07 590.74 464.67 Q 591.61 457.27 592.48 449.33 Q 593.35 441.39 594.22 434.14 Q 595.09 426.89 595.96 421.15 Q 596.83 415.42 597.70 411.35 Q 598.57 407.29 599.44 404.45 Q 600.31 401.60 601.18 399.69 Q 602.05 397.78 602.92 396.31 Q 603.79 394.84 604.66 393.76 Q 605.53 392.69 606.40 391.90 Q 607.27 391.12 608.14 390.53 Q 609.01 389.94 609.88 389.50 Q 610.75 389.06 611.62 388.81 Q 612.49 388.57 613.36 388.52 Q 614.23 388.47 615.10 388.52 Q 615.97 388.57 616.84 388.81 Q 617.71 389.06 618.58 389.50 Q 619.45 389.94 620.32 390.53 Q 621.19 391.12 622.06 392.00 Q 622.93 392.88 623.80 394.06 Q 624.67 395.23 625.54 396.85 Q 626.41 398.47 627.28 400.72 Q 628.15 402.98 629.02 406.16 Q 629.89 409.35 630.76 413.90 Q 631.63 418.46 632.50 424.68 Q 633.37 430.91 634.24 438.45 Q 635.11 446.00 635.98 454.18 Q 636.85 462.36 637.72 466.77 Q 638.59 471.18 639.46 470.11 Q 640.33 469.03 641.20 462.22 Q 642.07 455.41 642.94 442.91 Q 643.81 430.42 644.68 414.69 Q 645.55 398.96 646.42 383.67 Q 647.29 368.38 648.16 354.22 Q 649.03 340.06 649.90 327.37 Q 650.77 314.68 651.64 303.70 Q 652.51 292.73 653.38 283.37 Q 654.25 274.01 655.12 266.31 Q 655.99 258.62 656.86 252.45 Q 657.73 246.27 658.60 241.67 Q 659.47 237.06 660.34 233.88 Q 661.21 230.69 662.08 228.54 Q 662.95 226.38 663.82 224.81 Q 664.69 223.24 665.56 222.02 Q 666.43 220.79 667.30 219.81 Q 668.17 218.83 669.04 218.10 Q 669.91 217.36 670.78 216.78 Q 671.65 216.19 672.52 215.75 Q 673.39 215.31 674.26 215.06 Q 675.13 214.82 676.00 214.67 Q 676.87 214.52 677.74 214.42 Q 678.61 214.33 679.48 214.37 Q 680.35 214.42 681.22 214.52 Q 682.09 214.62 682.96 214.86 Q 683.83 215.11 684.70 215.45 Q 685.57 215.80 686.44 216.33 Q 687.31 216.87 688.18 217.51 Q 689.05 218.15 689.92 218.98 Q 690.79 219.81 691.66 220.84 Q 692.53 221.87 693.40 223.24 Q 694.27 224.62 695.14 226.43 Q 696.01 228.24 696.88 230.84 Q 697.75 233.44 698.62 237.26 Q 699.49 241.08 700.36 246.42 Q 701.23 251.76 702.10 258.96 Q 702.97 266.17 703.84 275.62 Q 704.71 285.08 705.58 297.23 Q 706.45 309.39 707.32 323.94 Q 708.19 338.49 709.06 354.61 Q 709.93 370.73 710.80 388.13 Q 711.67 405.52 712.54 422.43 Q 713.41 439.33 714.28 451.09 Q 715.15 462.85 716.02 468.93 Q 716.89 475.01 717.76 475.01 Q 718.63 475.01 719.50 469.22 Q 720.37 463.44 721.24 455.06 Q 722.11 446.68 722.98 438.99 Q 723.85 431.30 724.72 424.88 Q 725.59 418.46 726.46 413.66 Q 727.33 408.86 728.20 405.52 Q 729.07 402.19 729.94 399.89 Q 730.81 397.59 731.68 395.97 Q 732.55 394.35 733.42 393.22 Q 734.29 392.10 735.16 391.31 Q 736.03 390.53 736.90 389.99 Q 737.77 389.45 738.64 389.11 Q 739.51 388.77 740.38 388.62 Q 741.25 388.47 742.12 388.47 Q 742.99 388.47 743.86 388.67 Q 744.73 388.86 745.60 389.21 Q 746.47 389.55 747.34 390.09 Q 748.21 390.63 749.08 391.36 Q 749.95 392.10 750.82 393.13 Q 751.69 394.16 752.56 395.58 Q 753.43 397.00 754.30 398.91 Q 755.17 400.82 756.04 403.56 Q 756.91 406.31 757.78 410.52 Q 758.65 414.74 759.52 421.40 Q 760.39 428.06 761.26 437.03 Q 762.13 446.00 763.00 455.70 Q 763.87 465.40 764.74 474.42 Q 765.61 483.43 766.48 490.39 Q 767.35 497.35 768.22 501.32 Q 769.09 505.29 769.96 506.81 Q 770.83 508.33 771.70 508.67 Q 772.57 509.01 773.44 508.47 Q 774.31 507.93 775.18 506.71 Q 776.05 505.48 776.92 503.87 Q 777.79 502.25 778.66 500.49 Q 779.53 498.72 780.40 497.01 Q 781.27 495.29 782.14 493.82 Q 783.01 492.35 783.88 491.18 Q 784.75 490.00 785.62 489.12 Q 786.49 488.24 787.36 487.55 Q 788.23 486.86 789.10 486.42 Q 789.97 485.98 790.84 485.74 Q 791.71 485.49 792.58 485.34 Q 793.45 485.20 794.32 485.20 Q 795.19 485.20 796.06 485.34 Q 796.93 485.49 797.80 485.74 Q 798.67 485.98 799.54 486.42 Q 800.41 486.86 801.28 487.50 Q 802.15 488.14 803.02 488.87 Q 803.89 489.61 804.76 490.59 Q 805.63 491.57 806.50 492.79 Q 807.37 494.02 808.24 495.54 Q 809.11 497.06 809.98 498.87 Q 810.85 500.68 811.72 502.64 Q 812.59 504.60 813.46 506.41 Q 814.33 508.23 815.20 509.70 Q 816.07 511.17 816.94 512.15 Q 817.81 513.13 818.68 513.57 Q 819.55 514.01 820.42 513.76 Q 821.29 513.52 822.16 512.83 Q 823.03 512.15 823.90 511.02 Q 824.77 509.89 825.64 508.62 Q 826.51 507.35 827.38 506.02 Q 828.25 504.70 829.12 503.62 Q 829.99 502.54 830.86 501.66 Q 831.73 500.78 832.60 500.04 Q 833.47 499.31 834.34 498.82 Q 835.21 498.33 836.08 497.94 Q 836.95 497.55 837.82 497.30 Q 838.69 497.06 839.56 496.96 Q 840.43 496.86 841.30 496.86 Q 842.17 496.86 843.04 497.01 Q 843.91 497.15 844.78 497.40 Q 845.65 497.64 846.52 498.04 Q 847.39 498.43 848.26 498.87 Q 849.13 499.31 850.00 500.00 Q 850.87 500.68 851.74 501.56 Q 852.61 502.45 853.48 503.57 Q 854.35 504.70 855.22 506.17 Q 856.09 507.64 856.96 509.31 Q 857.83 510.97 858.70 512.54 Q 859.57 514.11 860.44 515.38 Q 861.31 516.65 862.18 517.54 Q 863.05 518.42 863.92 518.66 Q 864.79 518.91 865.66 518.71 Q 866.53 518.52 867.40 517.98 Q 868.27 517.44 869.14 516.70 Q 870.01 515.97 870.88 515.18 Q 871.75 514.40 872.62 513.67 Q 873.49 512.93 874.36 512.34 Q 875.23 511.76 876.10 511.31 Q 876.97 510.87 877.84 510.58 Q 878.71 510.29 879.58 510.14 Q 880.45 509.99 881.32 509.89 Q 882.19 509.80 883.06 509.80 Q 883.93 509.80 884.80 509.89 Q 885.67 509.99 886.54 510.19 Q 887.41 510.38 888.28 510.73 Q 889.15 511.07 890.02 511.56 Q 890.89 512.05 891.76 512.73 Q 892.63 513.42 893.50 514.30 Q 894.37 515.18 895.24 516.41 Q 896.11 517.63 896.98 518.66 Q 897.85 519.69 898.28 520.18 Q 898.72 520.67 898.72 524.94 Q 898.72 529.20 898.28 529.69 Q 897.85 530.18 896.98 531.31 Q 896.11 532.43 895.24 533.76 Q 894.37 535.08 893.50 536.01 Q 892.63 536.94 891.76 537.63 Q 890.89 538.31 890.02 538.85 Q 889.15 539.39 888.28 539.73 Q 887.41 540.08 886.54 540.27 Q 885.67 540.47 884.80 540.57 Q 883.93 540.66 883.06 540.66 Q 882.19 540.66 881.32 540.62 Q 880.45 540.57 879.58 540.42 Q 878.71 540.27 877.84 540.03 Q 876.97 539.78 876.10 539.39 Q 875.23 539.00 874.36 538.46 Q 873.49 537.92 872.62 537.28 Q 871.75 536.65 870.88 535.96 Q 870.01 535.27 869.14 534.69 Q 868.27 534.10 867.40 533.66 Q 866.53 533.22 865.66 533.12 Q 864.79 533.02 863.92 533.36 Q 863.05 533.71 862.18 534.49 Q 861.31 535.27 860.44 536.45 Q 859.57 537.63 858.70 539.05 Q 857.83 540.47 856.96 541.94 Q 856.09 543.41 855.22 544.73 Q 854.35 546.05 853.48 547.13 Q 852.61 548.21 851.74 549.09 Q 850.87 549.97 850.00 550.61 Q 849.13 551.25 848.26 551.79 Q 847.39 552.33 846.52 552.67 Q 845.65 553.01 844.78 553.26 Q 843.91 553.50 843.04 553.65 Q 842.17 553.80 841.30 553.80 Q 840.43 553.80 839.56 553.70 Q 838.69 553.60 837.82 553.36 Q 836.95 553.11 836.08 552.77 Q 835.21 552.42 834.34 551.89 Q 833.47 551.35 832.60 550.71 Q 831.73 550.07 830.86 549.19 Q 829.99 548.31 829.12 547.23 Q 828.25 546.15 827.38 544.98 Q 826.51 543.80 825.64 542.62 Q 824.77 541.45 823.90 540.47 Q 823.03 539.49 822.16 538.85 Q 821.29 538.21 820.42 538.02 Q 819.55 537.82 818.68 538.17 Q 817.81 538.51 816.94 539.39 Q 816.07 540.27 815.20 541.64 Q 814.33 543.02 813.46 544.73 Q 812.59 546.45 811.72 548.31 Q 810.85 550.17 809.98 551.98 Q 809.11 553.80 808.24 555.36 Q 807.37 556.93 806.50 558.26 Q 805.63 559.58 804.76 560.61 Q 803.89 561.64 803.02 562.42 Q 802.15 563.20 801.28 563.84 Q 800.41 564.48 799.54 564.92 Q 798.67 565.36 797.80 565.61 Q 796.93 565.85 796.06 566.00 Q 795.19 566.14 794.32 566.14 Q 793.45 566.14 792.58 566.00 Q 791.71 565.85 790.84 565.61 Q 789.97 565.36 789.10 564.92 Q 788.23 564.48 787.36 563.84 Q 786.49 563.20 785.62 562.42 Q 784.75 561.64 783.88 560.56 Q 783.01 559.48 782.14 558.11 Q 781.27 556.74 780.40 555.12 Q 779.53 553.50 778.66 551.79 Q 777.79 550.07 776.92 548.50 Q 776.05 546.94 775.18 545.76 Q 774.31 544.58 773.44 544.05 Q 772.57 543.51 771.70 543.80 Q 770.83 544.09 769.96 545.76 Q 769.09 547.43 768.22 551.54 Q 767.35 555.66 766.48 562.62 Q 765.61 569.57 764.74 578.39 Q 763.87 587.21 763.00 596.57 Q 762.13 605.93 761.26 614.36 Q 760.39 622.79 759.52 629.06 Q 758.65 635.33 757.78 639.35 Q 756.91 643.37 756.04 646.11 Q 755.17 648.86 754.30 650.77 Q 753.43 652.68 752.56 654.15 Q 751.69 655.62 750.82 656.75 Q 749.95 657.87 749.08 658.71 Q 748.21 659.54 747.34 660.18 Q 746.47 660.81 745.60 661.25 Q 744.73 661.69 743.86 661.94 Q 742.99 662.18 742.12 662.28 Q 741.25 662.38 740.38 662.28 Q 739.51 662.18 738.64 661.99 Q 737.77 661.79 736.90 661.45 Q 736.03 661.11 735.16 660.52 Q 734.29 659.93 733.42 659.10 Q 732.55 658.26 731.68 657.09 Q 730.81 655.91 729.94 654.20 Q 729.07 652.48 728.20 649.98 Q 727.33 647.48 726.46 643.76 Q 725.59 640.04 724.72 634.74 Q 723.85 629.45 722.98 622.54 Q 722.11 615.63 721.24 607.75 Q 720.37 599.86 719.50 593.63 Q 718.63 587.41 717.76 585.50 Q 716.89 583.59 716.02 586.43 Q 715.15 589.27 714.28 597.06 Q 713.41 604.85 712.54 618.57 Q 711.67 632.29 710.80 648.32 Q 709.93 664.34 709.06 680.56 Q 708.19 696.78 707.32 712.31 Q 706.45 727.84 705.58 741.47 Q 704.71 755.09 703.84 764.84 Q 702.97 774.59 702.10 781.84 Q 701.23 789.09 700.36 794.48 Q 699.49 799.87 698.62 803.75 Q 697.75 807.62 696.88 810.26 Q 696.01 812.91 695.14 814.82 Q 694.27 816.73 693.40 818.05 Q 692.53 819.38 691.66 820.41 Q 690.79 821.43 689.92 822.22 Q 689.05 823.00 688.18 823.64 Q 687.31 824.28 686.44 824.72 Q 685.57 825.16 684.70 825.50 Q 683.83 825.84 682.96 826.04 Q 682.09 826.24 681.22 826.33 Q 680.35 826.43 679.48 826.43 Q 678.61 826.43 677.74 826.38 Q 676.87 826.33 676.00 826.19 Q 675.13 826.04 674.26 825.80 Q 673.39 825.55 672.52 825.16 Q 671.65 824.77 670.78 824.18 Q 669.91 823.59 669.04 822.86 Q 668.17 822.12 667.30 821.19 Q 666.43 820.26 665.56 819.03 Q 664.69 817.81 663.82 816.09 Q 662.95 814.38 662.08 812.08 Q 661.21 809.77 660.34 806.34 Q 659.47 802.91 658.60 798.21 Q 657.73 793.50 656.86 787.33 Q 655.99 781.16 655.12 773.37 Q 654.25 765.57 653.38 756.31 Q 652.51 747.05 651.64 736.27 Q 650.77 725.49 649.90 713.39 Q 649.03 701.29 648.16 688.40 Q 647.29 675.51 646.42 661.99 Q 645.55 648.46 644.68 634.70 Q 643.81 620.93 642.94 609.95 Q 642.07 598.97 641.20 592.51 Q 640.33 586.04 639.46 584.27 Q 638.59 582.51 637.72 585.50 Q 636.85 588.49 635.98 595.30 Q 635.11 602.11 634.24 608.87 Q 633.37 615.63 632.50 621.56 Q 631.63 627.49 630.76 632.25 Q 629.89 637.00 629.02 640.48 Q 628.15 643.96 627.28 646.41 Q 626.41 648.86 625.54 650.57 Q 624.67 652.29 623.80 653.61 Q 622.93 654.93 622.06 655.86 Q 621.19 656.79 620.32 657.48 Q 619.45 658.17 618.58 658.61 Q 617.71 659.05 616.84 659.29 Q 615.97 659.54 615.10 659.64 Q 614.23 659.73 613.36 659.69 Q 612.49 659.64 611.62 659.49 Q 610.75 659.34 609.88 659.05 Q 609.01 658.75 608.14 658.31 Q 607.27 657.87 606.40 657.14 Q 605.53 656.40 604.66 655.47 Q 603.79 654.54 602.92 653.32 Q 602.05 652.09 601.18 650.42 Q 600.31 648.76 599.44 646.55 Q 598.57 644.35 597.70 641.02 Q 596.83 637.68 595.96 632.59 Q 595.09 627.49 594.22 620.34 Q 593.35 613.18 592.48 605.05 Q 591.61 596.92 590.74 588.93 Q 589.87 580.94 589.00 574.13 Q 588.13 567.32 587.26 562.67 Q 586.39 558.01 585.52 555.32 Q 584.65 552.62 583.78 551.00 Q 582.91 549.39 582.04 548.36 Q 581.17 547.33 580.30 546.79 Q 579.43 546.25 578.56 546.05 Q 577.69 545.86 576.82 545.96 Q 575.95 546.05 575.08 546.50 Q 574.21 546.94 573.34 547.82 Q 572.47 548.70 571.60 549.93 Q 570.73 551.15 569.86 552.87 Q 568.99 554.58 568.12 556.83 Q 567.25 559.09 566.38 561.59 Q 565.51 564.09 564.64 566.63 Q 563.77 569.18 562.90 571.53 Q 562.03 573.89 561.16 575.90 Q 560.29 577.90 559.42 579.47 Q 558.55 581.04 557.68 582.27 Q 556.81 583.49 555.94 584.42 Q 555.07 585.35 554.20 586.09 Q 553.33 586.82 552.46 587.36 Q 551.59 587.90 550.72 588.24 Q 549.85 588.59 548.98 588.78 Q 548.11 588.98 547.24 589.08 Q 546.37 589.17 545.50 589.17 Q 544.63 589.17 543.76 589.08 Q 542.89 588.98 542.02 588.78 Q 541.15 588.59 540.28 588.24 Q 539.41 587.90 538.54 587.36 Q 537.67 586.82 536.80 586.14 Q 535.93 585.45 535.06 584.62 Q 534.19 583.78 533.32 582.66 Q 532.45 581.53 531.58 580.16 Q 530.71 578.79 529.84 577.02 Q 528.97 575.26 528.10 573.00 Q 527.23 570.75 526.36 568.30 Q 525.49 565.85 524.62 563.40 Q 523.75 560.95 522.88 558.70 Q 522.01 556.44 521.14 554.53 Q 520.27 552.62 519.40 551.25 Q 518.53 549.88 517.66 548.85 Q 516.79 547.82 515.92 547.13 Q 515.05 546.45 514.18 546.05 Q 513.31 545.66 512.44 545.56 Q 511.56 545.47 510.69 545.61 Q 509.82 545.76 508.95 546.20 Q 508.08 546.64 507.21 547.33 Q 506.34 548.01 505.47 549.04 Q 504.60 550.07 503.73 551.54 Q 502.86 553.01 501.99 554.87 Q 501.12 556.74 500.25 559.09 Q 499.38 561.44 498.51 563.89 Q 497.64 566.34 496.77 568.74 Q 495.90 571.14 495.03 573.30 Q 494.16 575.45 493.29 577.27 Q 492.42 579.08 491.55 580.45 Q 490.68 581.82 489.81 582.95 Q 488.94 584.08 488.07 584.91 Q 487.20 585.74 486.33 586.38 Q 485.46 587.02 484.59 587.46 Q 483.72 587.90 482.85 588.29 Q 481.98 588.68 481.11 588.93 Q 480.24 589.17 479.37 589.27 Q 478.50 589.37 477.63 589.37 Q 476.76 589.37 475.89 589.27 Q 475.02 589.17 474.15 588.88 Q 473.28 588.59 472.41 588.24 Q 471.54 587.90 470.67 587.36 Q 469.80 586.82 468.93 586.09 Q 468.06 585.35 467.19 584.42 Q 466.32 583.49 465.45 582.27 Q 464.58 581.04 463.71 579.47 Q 462.84 577.90 461.97 575.94 Q 461.10 573.98 460.23 571.68 Q 459.36 569.38 458.49 566.83 Q 457.62 564.28 456.75 561.78 Q 455.88 559.28 455.01 557.03 Q 454.14 554.78 453.27 552.96 Q 452.40 551.15 451.53 549.93 Q 450.66 548.70 449.79 547.82 Q 448.92 546.94 448.05 546.50 Q 447.18 546.05 446.31 545.96 Q 445.44 545.86 444.57 546.05 Q 443.70 546.25 442.83 546.79 Q 441.96 547.33 441.09 548.36 Q 440.22 549.39 439.35 551.00 Q 438.48 552.62 437.61 555.36 Q 436.74 558.11 435.87 562.71 Q 435.00 567.32 434.13 573.89 Q 433.26 580.45 432.39 588.10 Q 431.52 595.74 430.65 603.63 Q 429.78 611.52 428.91 618.43 Q 428.04 625.34 427.17 630.53 Q 426.30 635.72 425.43 639.30 Q 424.56 642.88 423.69 645.38 Q 422.82 647.88 421.95 649.64 Q 421.08 651.40 420.21 652.73 Q 419.34 654.05 418.47 655.03 Q 417.60 656.01 416.73 656.79 Q 415.86 657.58 414.99 658.12 Q 414.12 658.66 413.25 659.10 Q 412.38 659.54 411.51 659.69 Q 410.64 659.83 409.77 659.88 Q 408.90 659.93 408.03 659.83 Q 407.16 659.73 406.29 659.44 Q 405.42 659.15 404.55 658.66 Q 403.68 658.17 402.81 657.48 Q 401.94 656.79 401.07 655.81 Q 400.20 654.83 399.33 653.46 Q 398.46 652.09 397.59 650.28 Q 396.72 648.46 395.85 645.82 Q 394.98 643.17 394.11 639.40 Q 393.24 635.63 392.37 630.58 Q 391.50 625.53 390.63 619.41 Q 389.76 613.28 388.89 606.32 Q 388.02 599.37 387.15 593.14 Q 386.28 586.92 385.41 584.42 Q 384.54 581.92 383.67 584.13 Q 382.80 586.33 381.93 593.49 Q 381.06 600.64 380.19 612.65 Q 379.32 624.65 378.45 638.76 Q 377.58 652.87 376.71 667.08 Q 375.84 681.29 374.97 694.82 Q 374.10 708.34 373.23 720.54 Q 372.36 732.74 371.49 743.38 Q 370.62 754.01 369.75 763.22 Q 368.88 772.43 368.01 779.78 Q 367.14 787.13 366.27 792.77 Q 365.40 798.40 364.53 802.52 Q 363.66 806.64 362.79 809.43 Q 361.92 812.22 361.05 814.18 Q 360.18 816.14 359.31 817.56 Q 358.44 818.98 357.57 820.11 Q 356.70 821.24 355.83 822.07 Q 354.96 822.90 354.09 823.59 Q 353.22 824.28 352.35 824.72 Q 351.48 825.16 350.61 825.50 Q 349.74 825.84 348.87 826.04 Q 348.00 826.24 347.13 826.33 Q 346.26 826.43 345.39 826.43 Q 344.52 826.43 343.65 826.38 Q 342.78 826.33 341.91 826.24 Q 341.04 826.14 340.17 825.89 Q 339.30 825.65 338.43 825.31 Q 337.56 824.96 336.69 824.42 Q 335.82 823.88 334.95 823.20 Q 334.08 822.51 333.21 821.58 Q 332.34 820.65 331.47 819.47 Q 330.60 818.30 329.73 816.68 Q 328.86 815.06 327.99 812.91 Q 327.12 810.75 326.25 807.71 Q 325.38 804.68 324.51 800.17 Q 323.64 795.66 322.77 789.44 Q 321.90 783.21 321.03 775.18 Q 320.16 767.14 319.29 755.87 Q 318.42 744.60 317.55 730.20 Q 316.68 715.79 315.81 700.11 Q 314.94 684.43 314.07 668.06 Q 313.20 651.70 312.33 635.68 Q 311.46 619.65 310.59 608.73 Q 309.72 597.80 308.85 592.60 Q 307.98 587.41 307.11 587.26 Q 306.24 587.12 305.37 591.58 Q 304.50 596.03 303.63 603.83 Q 302.76 611.62 301.89 618.72 Q 301.02 625.83 300.15 631.56 Q 299.28 637.29 298.41 641.65 Q 297.54 646.01 296.67 649.00 Q 295.80 651.99 294.93 654.05 Q 294.06 656.11 293.19 657.53 Q 292.32 658.95 291.45 659.93 Q 290.58 660.91 289.71 661.65 Q 288.84 662.38 287.97 662.82 Q 287.10 663.26 286.23 663.51 Q 285.36 663.75 284.49 663.90 Q 283.62 664.05 282.75 664.00 Q 281.88 663.95 281.01 663.80 Q 280.14 663.65 279.27 663.31 Q 278.40 662.97 277.53 662.43 Q 276.66 661.89 275.79 661.11 Q 274.92 660.32 274.05 659.24 Q 273.18 658.17 272.31 656.70 Q 271.44 655.23 270.57 653.36 Q 269.70 651.50 268.83 648.81 Q 267.96 646.11 267.09 641.85 Q 266.22 637.59 265.35 630.73 Q 264.48 623.87 263.61 614.31 Q 262.74 604.76 261.87 594.61 Q 261.00 584.47 260.13 575.36 Q 259.26 566.24 258.39 559.28 Q 257.52 552.33 256.65 548.90 Q 255.78 545.47 254.91 544.54 Q 254.04 543.60 253.17 543.60 Q 252.30 543.60 251.43 544.34 Q 250.56 545.07 249.69 546.25 Q 248.82 547.43 247.95 548.90 Q 247.08 550.37 246.21 551.93 Q 245.34 553.50 244.47 554.97 Q 243.60 556.44 242.73 557.72 Q 241.86 558.99 240.99 560.02 Q 240.12 561.05 239.25 561.88 Q 238.38 562.71 237.51 563.40 Q 236.64 564.09 235.77 564.53 Q 234.90 564.97 234.03 565.31 Q 233.16 565.65 232.29 565.85 Q 231.42 566.05 230.55 566.14 Q 229.68 566.24 228.81 566.14 Q 227.94 566.05 227.07 565.85 Q 226.20 565.65 225.33 565.31 Q 224.46 564.97 223.59 564.43 Q 222.72 563.89 221.85 563.20 Q 220.98 562.52 220.11 561.59 Q 219.24 560.66 218.37 559.43 Q 217.50 558.21 216.63 556.79 Q 215.76 555.36 214.89 553.70 Q 214.02 552.03 213.15 550.12 Q 212.28 548.21 211.41 546.40 Q 210.54 544.58 209.67 543.02 Q 208.80 541.45 207.93 540.27 Q 207.06 539.10 206.19 538.46 Q 205.32 537.82 204.45 537.82 Q 203.58 537.82 202.71 538.31 Q 201.84 538.80 200.97 539.64 Q 200.10 540.47 199.23 541.60 Q 198.36 542.72 197.49 543.90 Q 196.62 545.07 195.75 546.20 Q 194.88 547.33 194.01 548.26 Q 193.14 549.19 192.27 549.97 Q 191.40 550.76 190.53 551.35 Q 189.66 551.93 188.79 552.38 Q 187.92 552.82 187.05 553.11 Q 186.18 553.40 185.31 553.55 Q 184.44 553.70 183.57 553.80 Q 182.70 553.89 181.83 553.80 Q 180.96 553.70 180.09 553.50 Q 179.22 553.31 178.35 553.01 Q 177.48 552.72 176.61 552.28 Q 175.74 551.84 174.87 551.20 Q 174.00 550.56 173.13 549.73 Q 172.26 548.90 171.39 547.82 Q 170.52 546.74 169.65 545.32 Q 168.78 543.90 167.91 542.33 Q 167.04 540.76 166.17 539.29 Q 165.30 537.82 164.43 536.55 Q 163.56 535.27 162.69 534.44 Q 161.82 533.61 160.95 533.27 Q 160.08 532.92 159.21 532.92 Q 158.34 532.92 157.47 533.27 Q 156.60 533.61 155.73 534.25 Q 154.86 534.88 153.99 535.52 Q 153.12 536.16 152.25 536.79 Q 151.38 537.43 150.51 538.02 Q 149.64 538.61 148.77 539.05 Q 147.90 539.49 147.03 539.83 Q 146.16 540.17 145.29 540.47 Q 144.42 540.76 143.55 540.91 Q 142.68 541.06 141.81 541.06 Q 140.94 541.06 140.07 541.01 Q 139.20 540.96 138.33 540.76 Q 137.46 540.57 136.59 540.22 Q 135.72 539.88 134.85 539.54 Q 133.98 539.19 133.11 538.66 Q 132.24 538.12 131.37 537.43 Q 130.50 536.74 129.63 535.76 Q 128.76 534.78 127.89 533.80 Q 127.02 532.82 126.15 531.99 Q 125.28 531.16 125.28 525.18 Z M 910.90 518.37 Q 911.77 517.73 912.64 517.00 Q 913.51 516.26 914.38 515.58 Q 915.25 514.89 916.12 514.45 Q 916.99 514.01 917.86 513.76 Q 918.73 513.52 919.60 513.42 Q 920.47 513.32 921.34 513.37 Q 922.21 513.42 923.08 513.57 Q 923.95 513.71 924.82 513.96 Q 925.69 514.20 926.56 514.69 Q 927.43 515.18 928.30 516.16 Q 929.17 517.14 930.04 518.22 Q 930.91 519.30 931.78 520.28 Q 932.65 521.26 932.65 524.69 Q 932.65 528.12 931.78 529.05 Q 930.91 529.98 930.04 531.06 Q 929.17 532.14 928.30 533.07 Q 927.43 534.00 926.56 534.54 Q 925.69 535.08 924.82 535.42 Q 923.95 535.76 923.08 535.91 Q 922.21 536.06 921.34 536.11 Q 920.47 536.16 919.60 536.06 Q 918.73 535.96 917.86 535.72 Q 916.99 535.47 916.12 535.03 Q 915.25 534.59 914.38 533.90 Q 913.51 533.22 912.64 532.53 Q 911.77 531.84 910.90 531.21 Q 910.03 530.57 910.03 524.79 Z" fill="#000000" fill-rule="nonzero"></path>
</svg>